<?xml version="1.0" encoding="UTF-8" standalone="no"?>
<!-- Created with Inkscape (http://www.inkscape.org/) -->

<svg
   width="209.99878mm"
   height="61.733765mm"
   viewBox="0 0 209.99878 61.733765"
   version="1.1"
   id="svg1"
   xml:space="preserve"
   inkscape:version="1.4 (e7c3feb1, 2024-10-09)"
   sodipodi:docname="drawing.svg"
   xmlns:inkscape="http://www.inkscape.org/namespaces/inkscape"
   xmlns:sodipodi="http://sodipodi.sourceforge.net/DTD/sodipodi-0.dtd"
   xmlns="http://www.w3.org/2000/svg"
   xmlns:svg="http://www.w3.org/2000/svg"><sodipodi:namedview
     id="namedview1"
     pagecolor="#ffffff"
     bordercolor="#000000"
     borderopacity="0.25"
     inkscape:showpageshadow="2"
     inkscape:pageopacity="0.0"
     inkscape:pagecheckerboard="0"
     inkscape:deskcolor="#d1d1d1"
     inkscape:document-units="mm"
     inkscape:zoom="0.58444471"
     inkscape:cx="443.15569"
     inkscape:cy="65.874494"
     inkscape:window-width="1104"
     inkscape:window-height="682"
     inkscape:window-x="65"
     inkscape:window-y="237"
     inkscape:window-maximized="0"
     inkscape:current-layer="layer1"
     inkscape:export-bgcolor="#ffffff00"><inkscape:page
       x="0"
       y="0"
       width="209.99878"
       height="61.733765"
       id="page2"
       margin="0"
       bleed="0" /></sodipodi:namedview><defs
     id="defs1" /><g
     inkscape:label="Layer 1"
     inkscape:groupmode="layer"
     id="layer1"
     transform="translate(-0.00137922,-0.00116305)"><path
       id="rect1"
       style="fill:#000000;fill-opacity:1;stroke:#000000;stroke-width:0;stroke-dasharray:none"
       d="M 0.61470656,-0.50545072 V 62.576489 H 210.97449 V -0.50545072 Z M 23.20971,8.3606738 c 0.197058,-0.0079 0.37627,0.0344 0.50953,0.111105 0.06663,0.03835 0.119722,0.08433 0.160197,0.127124 0.04048,0.04279 0.0863,0.113171 0.0863,0.113171 l 0.126608,0.224793 -0.109038,0.234094 c 0,0 -11.164871,23.7728852 -13.834297,29.7129152 L 9.2079816,38.553663 c 0.0037,-0.01422 0.02517,-0.06517 0.02894,-0.07958 5e-4,-0.0012 0.0016,-0.0051 0.0021,-0.0062 0.7739564,-2.951951 3.4275774,-9.900792 6.1014364,-16.351457 1.343934,-3.24223 2.685055,-6.336389 3.783232,-8.687325 0.549088,-1.175469 1.036674,-2.165005 1.437638,-2.900598 0.200482,-0.367797 0.379377,-0.6727952 0.538985,-0.9120892 0.159609,-0.239294 0.264233,-0.406695 0.49041,-0.558623 0.747347,-0.502007 1.224907,-0.681303 1.619022,-0.697115 z m 22.512321,0.679029 c 0.142108,0.0077 0.282038,0.04639 0.403593,0.125573 l 0.04134,0.02532 0.03307,0.03307 c 0.194519,0.187853 0.192554,0.360677 0.198954,0.494026 0.0064,0.13335 -0.0065,0.259255 -0.02894,0.4025602 -0.04491,0.286608 -0.132836,0.636075 -0.257866,1.0604 -0.250059,0.848648 -0.650144,1.986435 -1.154451,3.326412 -1.008613,2.679953 -2.433322,6.158023 -3.886585,9.609233 -2.906527,6.902422 -5.924186,13.693221 -5.924186,13.693221 l -0.929659,-0.366903 c 0,0 5.046149,-14.559446 6.343799,-18.177702 0.643427,-1.794075 1.544509,-4.461222 2.447396,-6.599597 0.451443,-1.069188 0.898089,-2.004571 1.343587,-2.664437 0.222748,-0.3299322 0.439354,-0.5950082 0.716752,-0.7828982 0.173374,-0.117431 0.416343,-0.191056 0.65319,-0.178283 z m 95.770909,2.3011512 0.44339,0.03514 c 0.1905,0.01496 0.47449,0.055 0.76584,0.136943 0.14568,0.04097 0.29258,0.09135 0.43718,0.170015 0.14461,0.07867 0.3105,0.183337 0.41238,0.419613 0.0609,0.141238 0.0465,0.187468 0.047,0.236678 0,0.04921 -0.002,0.08966 -0.006,0.132808 -0.008,0.08629 -0.0228,0.179737 -0.0429,0.293006 -0.0403,0.226538 -0.10498,0.522653 -0.18758,0.880566 -0.16528,0.715828 -0.40804,1.673585 -0.69712,2.7342 -0.57818,2.121231 -1.33583,4.650095 -2.01383,6.461104 -1.22351,3.26816 -4.11367,8.824252 -4.77128,10.082072 0.78512,-0.123802 2.91627,-0.471367 5.61516,-0.763777 1.57674,-0.17083 4.59291,-0.469485 7.25175,-0.701249 1.32942,-0.115882 2.56819,-0.215549 3.49643,-0.273369 0.46412,-0.02891 0.84854,-0.04761 1.13637,-0.05271 0.14392,-0.0026 0.26268,-0.0019 0.36535,0.0041 0.0513,0.003 0.0988,0.0078 0.15451,0.01757 0.0557,0.0098 0.10813,-0.01663 0.27544,0.118856 0.17855,0.144578 0.24107,0.276901 0.31987,0.423747 0.0788,0.146845 0.14869,0.305214 0.20929,0.453202 0.12128,0.295975 0.20878,0.560689 0.20878,0.560689 l 0.21859,0.669727 -0.70487,-0.01344 c 0,0 -5.90475,-0.12268 -9.33586,0.103353 -3.44157,0.226721 -8.40905,0.955674 -11.42411,1.382861 l -0.90589,0.129191 0.38085,-0.83199 c 1.21623,-2.658588 3.81516,-7.382766 5.17385,-11.082011 1.35723,-3.695293 2.95314,-10.57986 3.0918,-11.289233 z m 39.75003,0.806669 0.52297,0.07803 c 0,0 0.15149,0.02224 0.32607,0.07235 0.17458,0.05011 0.39631,0.04884 0.62322,0.387056 5e-4,6.55e-4 0.0494,0.09009 0.0584,0.116789 0.01,0.0267 0.0146,0.04511 0.0176,0.06046 0.007,0.0307 0.008,0.04814 0.0103,0.0646 0.004,0.03292 0.005,0.05653 0.006,0.08216 0.002,0.05127 0.003,0.109614 0.002,0.179834 -0.002,0.140448 -0.008,0.331071 -0.0176,0.572059 -0.0192,0.481976 -0.0525,1.159125 -0.0956,1.976623 -0.0518,0.983406 -0.13231,2.390348 -0.20464,3.675745 0.82308,-0.171488 1.63766,-0.341391 2.52078,-0.523483 5.08478,-1.04844 10.93457,-2.228463 14.93759,-3.042708 0.004,-8e-4 0.01,-0.0034 0.0139,-0.0041 l 0.21498,0.976685 c -0.006,0.0013 -0.01,0.0022 -0.016,0.0036 -0.002,6e-4 -0.004,0.0016 -0.006,0.0021 -5.58333,1.305371 -12.20083,2.793611 -17.74827,4.076754 -0.0196,0.347627 -0.0329,0.593031 -0.0527,0.946712 -0.25603,4.566179 -0.52266,9.528113 -0.51366,10.986409 l 0.002,0.546737 -0.54466,-0.04702 c -0.31097,-0.02658 -1.07256,-0.124153 -1.50224,-0.820105 -0.1217,-0.197165 -0.0855,-0.234319 -0.0935,-0.308509 -0.008,-0.07419 -0.012,-0.151122 -0.014,-0.242362 -0.004,-0.182486 0.002,-0.416576 0.0119,-0.704867 0.0204,-0.576583 0.065,-1.363485 0.12712,-2.292883 0.12423,-1.858797 0.31732,-4.286312 0.51935,-6.699333 0.0258,-0.308509 0.0515,-0.597033 0.0775,-0.903821 -3.92387,0.916751 -7.11125,1.692856 -8.58139,2.147673 L 171.262,23.692609 171.2,23.085411 c -0.0273,-0.265213 0.0769,-0.336224 0.11886,-0.389124 0.042,-0.05289 0.0744,-0.08076 0.10749,-0.109037 0.0662,-0.05656 0.13469,-0.10413 0.21859,-0.15813 0.16779,-0.108007 0.39218,-0.234535 0.67593,-0.375171 0.56749,-0.281271 1.36352,-0.616278 2.31613,-0.906404 0.52513,-0.15993 1.81094,-0.449543 3.64474,-0.845427 0.6736,-0.145417 1.47905,-0.315044 2.27635,-0.483174 0.33298,-3.856586 0.63562,-7.14375 0.63562,-7.14375 z M 104.69984,18.2841 c 0.27347,-0.01959 0.56582,0.04055 0.78548,0.209289 0.21966,0.168741 0.3371,0.398574 0.416,0.623218 l 0.14624,0.417546 -0.39636,0.195336 c -0.80553,0.398645 -1.9329,0.997997 -3.15537,1.658814 0.15401,0.08577 3.71034,2.082709 5.35472,4.931482 l 0.34727,0.601514 -0.68317,0.138492 c -2.84047,0.569362 -5.73856,0.413514 -9.453174,1.16427 -3.18299,0.643312 -7.32933,1.926072 -8.52351,2.302702 0.45977,0.09451 0.80954,0.165193 1.09554,0.226343 1.4631,0.312831 5.16318,1.153613 8.82013,2.046903 3.656964,0.89329 7.210564,1.811611 8.572614,2.375049 0.7189,0.297386 1.48622,0.829924 1.48622,0.829924 l -0.41187,0.896586 -20.667997,-5.582088 -0.03152,-0.0078 0.230477,-0.97255 c 0,0 0.237918,0.04949 0.294039,0.06098 l -0.209807,-0.664559 0.0036,-0.0021 c 0,0 8.479639,-2.632851 11.318688,-3.320211 1.44229,-0.349192 2.78651,-0.417878 3.80029,-0.501778 0.5069,-0.04195 0.93278,-0.09069 1.22112,-0.162264 0.24019,-0.05963 0.30148,-0.117662 0.34158,-0.154512 -0.042,-0.0955 -0.13329,-0.249835 -0.27337,-0.429432 -0.29328,-0.375995 -0.7596,-0.848255 -1.24437,-1.295011 -0.96955,-0.893513 -2.0097,-1.697571 -2.0097,-1.697571 l 0.46198,-0.697632 C 96.858371,24.441609 88.6765,29.155192 88.6765,29.155192 l -0.525534,-0.851549 c 0,0 0.02523,-0.01544 0.02532,-0.0155 0.0239,-0.01581 3.125419,-2.070103 6.484359,-4.254004 1.68592,-1.096146 3.43034,-2.220858 4.87154,-3.130558 1.441195,-0.909701 2.549235,-1.590653 3.081995,-1.853634 0.94444,-0.4662 1.53873,-0.726664 2.08566,-0.765844 z m -14.867324,0.274401 c 0.93158,-0.0084 1.80308,0.03682 2.54507,0.126091 0.49466,0.05951 0.93293,0.139315 1.29914,0.238745 0.36622,0.09943 0.65886,0.203018 0.90796,0.406177 l 0.51934,0.423747 -0.55448,0.376721 c -6.5582,4.462135 -25.310886,14.169272 -25.912118,14.480253 -2.109106,3.414509 -4.678876,8.0416 -4.689636,8.061007 -10e-5,4e-5 -0.0098,0.01757 -0.0098,0.01757 l -0.882634,-0.468706 c 0,0 0.0098,-0.01753 0.0098,-0.01757 0.01094,-0.02173 2.920426,-5.800747 5.025533,-9.449552 2.115257,-3.666397 6.471814,-10.166838 7.747847,-12.181685 l 0.130742,-0.205156 0.240295,-0.02325 c 0.551484,-0.05777 0.96524,-0.04168 1.318266,0.181901 0.176513,0.111789 0.318932,0.294348 0.382922,0.486275 0.06399,0.191926 0.06045,0.378207 0.03152,0.546737 -0.115698,0.674119 -0.576885,1.265878 -0.947229,1.820044 -0.422827,0.632699 -1.620975,2.092157 -3.021521,3.853511 -1.400546,1.761354 -2.979952,3.785202 -4.05505,5.373316 -0.03639,0.05375 -0.08102,0.126073 -0.118339,0.181901 4.017377,-2.291717 15.810167,-9.045514 21.505148,-12.615768 -0.64702,-0.09696 -1.11176,-0.240525 -2.439128,-0.239778 -0.960176,5.47e-4 -3.216497,0.289419 -5.177979,0.581876 -1.949934,0.290735 -3.620754,0.57641 -3.640604,0.57981 -1.1e-4,0 -0.0217,0.0041 -0.0217,0.0041 l -0.191203,-0.980302 c 0,0 0.02159,-0.0041 0.0217,-0.0041 0.01932,-0.0042 1.608605,-0.350455 3.53105,-0.714685 1.934094,-0.366436 4.164955,-0.749831 5.496304,-0.812871 v 5.17e-4 c 0.32129,-0.01521 0.63826,-0.02406 0.94878,-0.02687 z m 25.230514,0.817522 c 0.16688,0.0015 0.41109,0.08638 0.54312,0.240295 0.13206,0.153913 0.15994,0.290261 0.18914,0.406177 0.0363,0.144156 0.0179,0.189266 0.0119,0.246496 -0.006,0.05723 -0.0151,0.109749 -0.0274,0.167949 -0.0247,0.116392 -0.0612,0.253588 -0.10748,0.415995 -0.0926,0.324813 -0.22585,0.748895 -0.39016,1.245919 -0.3286,0.994049 -0.77494,2.271193 -1.22473,3.533118 -0.89957,2.523851 -1.81281,4.990393 -1.81281,4.990393 l -0.9431,-0.33383 c 0,0 0.004,-0.0139 0.004,-0.01395 0,0 0.002,-0.0021 0.002,-0.0021 0.007,-0.02025 0.9836,-2.942798 1.37924,-4.611088 0.40423,-1.704485 0.90609,-4.34689 0.99219,-5.596041 l 0.0233,-0.341581 0.32608,-0.101803 c 0.46734,-0.145403 0.70133,-0.248879 1.03508,-0.245979 z m 47.64774,0.605131 c 0.15172,0.0082 0.32398,0.03294 0.50488,0.09043 0.36179,0.114991 0.75996,0.391613 0.9958,0.86093 l 0.2465,0.490409 -0.51211,0.199471 c -4.56479,1.772752 -7.43874,2.952435 -9.21495,3.837492 -1.04028,0.518359 -1.61683,0.915042 -2.01538,1.264006 0.60215,0.03601 1.14541,0.08536 2.17972,0.03721 1.48847,-0.06929 3.343,-0.22052 5.38261,-0.427881 4.07921,-0.41472 8.89991,-1.053235 13.04882,-1.701188 l 1.05678,-0.164331 -0.55294,0.916223 c -5.96342,9.900798 -8.65914,12.722543 -16.26722,20.023584 l -0.10542,0.101285 -0.14469,0.02946 c -0.25714,0.05081 -0.48256,0.07243 -0.71882,0.01964 -0.23626,-0.05279 -0.48243,-0.231299 -0.59377,-0.449585 -0.22265,-0.436573 -0.12052,-0.820438 -0.0408,-1.304313 0.0675,-0.409712 0.28922,-0.543348 0.54312,-0.771529 0.25389,-0.22818 0.59064,-0.492858 1.01131,-0.826306 0.84135,-0.666895 2.01721,-1.60198 3.44526,-2.94504 2.71227,-2.550856 6.34838,-6.734173 10.18181,-13.103593 -7.19364,0.96629 -12.95411,1.563315 -16.63878,1.820044 -1.96301,0.13677 -3.4353,0.199097 -4.4297,0.212907 -0.4972,0.0069 -0.87338,0.0033 -1.14257,-0.01137 -0.13459,-0.0073 -0.24056,-0.01757 -0.33796,-0.03359 -0.0487,-0.008 -0.0925,-0.01568 -0.15813,-0.03876 -0.0656,-0.02308 -0.21976,-0.0054 -0.33383,-0.320394 -3e-4,-8.5e-4 -0.0275,-0.221625 -0.0274,-0.222725 1e-4,-0.0011 0.0204,-0.109114 0.0351,-0.144694 0.0293,-0.07115 0.0566,-0.104122 0.078,-0.130742 0.0428,-0.05324 0.0705,-0.0743 0.0961,-0.0956 0.0512,-0.04259 0.0963,-0.07303 0.15193,-0.109554 0.11112,-0.07304 0.25741,-0.160649 0.44338,-0.267684 0.37192,-0.214069 0.89775,-0.502436 1.53169,-0.841809 1.26787,-0.678744 2.96345,-1.560535 4.67362,-2.437061 1.71018,-0.876525 3.43321,-1.746323 4.75217,-2.40037 0.65948,-0.327024 1.21922,-0.601743 1.62677,-0.7953 0.20377,-0.09678 0.36814,-0.17291 0.49403,-0.22841 0.063,-0.02775 0.11653,-0.04966 0.16433,-0.06821 0.0478,-0.01855 0.0255,-0.03956 0.20877,-0.05478 0.0989,-0.0082 0.23017,-0.01646 0.38189,-0.0083 z m 34.3917,1.022159 0.47645,0.8785 c -0.002,0.0012 -0.008,0.0051 -0.01,0.0062 -1.34798,0.75214 -3.96288,2.481851 -6.27766,4.017326 -1.15916,0.76891 -2.2448,1.489965 -3.07423,2.021582 -0.41472,0.265809 -0.76426,0.484214 -1.03301,0.640788 -0.13438,0.07829 -0.24769,0.142272 -0.34778,0.191202 -0.05,0.02446 -0.0956,0.04521 -0.14831,0.0646 -0.0527,0.01939 -0.097,0.04636 -0.2403,0.04496 -0.10789,-0.001 -0.29865,-0.03179 -0.4377,-0.201538 -0.13903,-0.169744 -0.133,-0.370093 -0.1111,-0.474389 0.0438,-0.208591 0.1166,-0.281111 0.1912,-0.382923 0.14909,-0.203624 0.35192,-0.417049 0.56844,-0.634586 0.43303,-0.435072 0.91209,-0.859379 0.91209,-0.859379 l 0.0372,-0.03152 0.0408,-0.02532 c 1.69831,-1.006756 4.40415,-2.601501 9.44335,-5.249809 0.006,-0.0028 0.005,-0.0029 0.0103,-0.0057 z m -128.064549,0.28112 0.337964,0.935344 c 0,0 -5.335448,2.549674 -10.221082,5.310787 C 54.282647,30.28406 40.147178,39.039939 40.147178,39.039939 L 39.735317,39.296254 38.819093,37.914943 39.032,37.631756 c 0,10e-7 4.160642,-5.495895 5.816183,-7.900293 1.661819,-2.413516 2.571139,-4.10256 3.918107,-6.566524 l 0.285254,-0.519348 0.463021,0.365352 c 0.504369,0.397265 0.63397,1.046497 0.56844,1.652095 -0.06553,0.605599 -0.296468,1.240571 -0.590145,1.875338 -0.587355,1.269536 -1.446506,2.534558 -1.914095,3.210657 -0.519362,0.750959 -2.290481,2.890695 -3.976501,4.910294 -0.499464,0.598282 -0.523567,0.621729 -0.964799,1.146701 3.706289,-2.513249 12.247093,-8.275549 16.281177,-10.502202 4.969712,-2.743081 10.119279,-4.019393 10.119279,-4.019393 z m 48.253919,1.636593 c 1.69137,0.1983 3.14127,0.361498 4.25555,0.501778 1.11428,0.140281 1.84726,0.237644 2.28513,0.379305 0.454,0.146879 1.01252,0.49077 1.53531,0.812354 0.52279,0.321584 0.96325,0.614949 0.96325,0.614949 l -0.51005,0.859379 c 0,0 -0.46877,-0.249079 -1.81229,-0.657841 -1.34353,-0.408763 -3.52928,-0.960756 -6.85953,-1.519804 z m 79.38275,0.583944 0.2558,0.290938 c 0.88219,1.003419 3.34559,3.47522 4.49791,5.596041 0.009,0.01416 0.0267,0.02668 0.0357,0.04082 l -0.004,0.0021 c 0.006,0.0108 0.0173,0.02228 0.0233,0.03307 l -0.86145,0.503845 c -0.68015,-1.065212 -1.86755,-2.314502 -2.88044,-3.298506 -0.50645,-0.492002 -0.97067,-0.920524 -1.31103,-1.240235 -0.17018,-0.159856 -0.30909,-0.290616 -0.41393,-0.396875 -0.0524,-0.05313 -0.0942,-0.09939 -0.13643,-0.150378 -0.0211,-0.0255 -0.0436,-0.0502 -0.0703,-0.09353 -0.0266,-0.04333 -0.0902,-0.08024 -0.0822,-0.302824 0.007,-0.203295 0.1037,-0.405368 0.22272,-0.535368 0.11902,-0.13 0.24923,-0.207489 0.37879,-0.273369 z M 34.188368,23.994345 c 0.2923,-0.0064 0.53033,0.0162 0.751892,0.08475 0.247816,0.07668 0.447173,0.315376 0.507463,0.521415 0.06033,0.20604 0.04101,0.379266 0.0098,0.535368 -0.03119,0.156102 -0.08112,0.295295 -0.140559,0.420129 -0.05944,0.124834 -0.107143,0.22605 -0.238229,0.349333 l -0.136426,0.129191 -0.189652,0.0057 c -1.550416,0.05307 -5.135613,0.671528 -8.697144,1.353406 -3.561532,0.681879 -7.12942,1.424755 -8.843904,1.72651 L 16.971313,28.15173 c 5.409554,-1.753223 9.61481,-2.844552 12.591997,-3.464904 1.488594,-0.310176 2.667916,-0.503734 3.546553,-0.601514 0.439319,-0.04891 0.786188,-0.08456 1.078487,-0.09095 z m 29.359965,4.170805 c 0.08932,0.0015 0.179952,0.01553 0.270785,0.04703 0.181667,0.063 0.340699,0.210665 0.421679,0.363285 0.16196,0.30524 0.119358,0.569933 0.07235,0.812354 -0.04701,0.242421 -0.129355,0.470815 -0.216525,0.669726 -0.103617,0.236441 -0.259273,0.442641 -0.502295,0.767912 -0.243022,0.325271 -0.562664,0.730316 -0.941028,1.197343 -0.756729,0.934055 -1.74645,2.113399 -2.798795,3.353284 -2.104691,2.47977 -4.462464,5.20472 -5.676139,6.664192 -2.453656,2.95058 -3.619487,4.052794 -5.079794,6.035291 -1.44681,1.964175 -3.797184,5.923672 -3.797184,5.923672 l -0.886768,-0.45889 c 0,0 0.02716,-0.0506 0.02739,-0.0512 0.02948,-0.0666 1.888644,-4.273698 3.382739,-6.468338 1.51447,-2.224568 4.462587,-4.838361 7.041431,-7.964889 2.625923,-3.183604 4.733138,-5.254703 7.097241,-10.096024 l 0.05891,-0.118856 0.109038,-0.07441 c 0.467881,-0.319474 0.814061,-0.502395 1.154451,-0.574125 0.0851,-0.01794 0.173198,-0.02888 0.262516,-0.02739 z m 121.774497,1.378727 c 0,0 4.29163,0.552509 8.62531,1.142566 2.16684,0.295028 4.34427,0.600489 6.00377,0.850078 0.82976,0.124795 1.53023,0.235818 2.03915,0.326078 0.25446,0.04513 0.45931,0.0853 0.61702,0.120923 0.0789,0.01781 0.14462,0.03357 0.20722,0.05271 0.0626,0.01914 0.0849,-0.02441 0.26768,0.14056 0.25034,0.226008 0.26501,0.590607 0.20671,0.806669 -0.0584,0.216062 -0.15971,0.380534 -0.26149,0.531234 -0.20357,0.3014 -0.43976,0.537434 -0.43976,0.537434 l -0.21291,0.216525 -0.28887,-0.08785 c -4.77082,-1.459875 -10.56968,-1.499339 -16.98811,-3.665926 z m 0.53123,1.279509 c 0.005,0.0046 0.0105,0.0109 0.0155,0.0155 3.12137,3.177305 7.52335,6.878472 13.64258,10.502201 0.24121,0.142846 0.41797,0.447818 0.47697,0.789099 0.0591,0.341281 0.0587,0.77401 0.004,1.431437 l -0.0724,0.855762 -0.70848,-0.484725 c -6.3793,-4.370014 -11.34623,-9.385704 -14.07046,-12.408028 -0.004,-0.0042 -0.0115,-0.0113 -0.0155,-0.0155 z" /></g></svg>
