<?xml version="1.0" encoding="UTF-8" standalone="no"?>
<!-- Created with Inkscape (http://www.inkscape.org/) -->

<svg
   width="194.11008mm"
   height="45.639496mm"
   viewBox="0 0 194.11008 45.639496"
   version="1.1"
   id="svg1"
   xml:space="preserve"
   inkscape:version="1.4 (e7c3feb1, 2024-10-09)"
   sodipodi:docname="hyperlyte.svg"
   inkscape:export-filename="hyperlyte.svg"
   inkscape:export-xdpi="96"
   inkscape:export-ydpi="96"
   xmlns:inkscape="http://www.inkscape.org/namespaces/inkscape"
   xmlns:sodipodi="http://sodipodi.sourceforge.net/DTD/sodipodi-0.dtd"
   xmlns="http://www.w3.org/2000/svg"
   xmlns:svg="http://www.w3.org/2000/svg"><sodipodi:namedview
     id="namedview1"
     pagecolor="#ffffff"
     bordercolor="#000000"
     borderopacity="0.25"
     inkscape:showpageshadow="2"
     inkscape:pageopacity="0.0"
     inkscape:pagecheckerboard="0"
     inkscape:deskcolor="#d1d1d1"
     inkscape:document-units="mm"
     inkscape:zoom="0.58444471"
     inkscape:cx="443.15569"
     inkscape:cy="65.874494"
     inkscape:window-width="1104"
     inkscape:window-height="682"
     inkscape:window-x="65"
     inkscape:window-y="237"
     inkscape:window-maximized="0"
     inkscape:current-layer="layer1"
     inkscape:export-bgcolor="#ffffff00"><inkscape:page
       x="0"
       y="0"
       width="194.11008"
       height="45.639496"
       id="page1"
       margin="0"
       bleed="0" /></sodipodi:namedview><defs
     id="defs1" /><g
     inkscape:label="Layer 1"
     inkscape:groupmode="layer"
     id="layer1"
     transform="translate(-8.5788854,-8.8408067)"><path
       id="rect2"
       style="fill:#000000;fill-opacity:1;stroke:#000000;stroke-width:0"
       d="m 22.580614,8.8417477 c -0.394115,0.015812 -0.871675,0.1951081 -1.619022,0.6971151 -0.226177,0.151928 -0.330801,0.3193279 -0.49041,0.5586222 -0.159608,0.239294 -0.338503,0.544292 -0.538985,0.912089 -0.400964,0.735593 -0.88855,1.725129 -1.437638,2.900598 -1.098177,2.350936 -2.439298,5.445095 -3.783232,8.687325 -2.673859,6.450665 -5.3274796,13.399506 -6.101436,16.351457 -5e-4,0.0011 -0.00157,0.005 -0.00207,0.0062 -0.00377,0.01441 -0.025239,0.06536 -0.028939,0.07958 l 0.9410278,0.330212 C 12.189339,33.424919 23.354211,9.6520342 23.354211,9.6520342 L 23.463248,9.4179399 23.336641,9.1931474 c 0,0 -0.04582,-0.070381 -0.0863,-0.1131713 C 23.209866,9.0371821 23.156774,8.991202 23.090144,8.952852 22.956884,8.876147 22.777672,8.8338477 22.580614,8.8417477 Z M 45.092935,9.520776 c -0.236847,-0.012773 -0.479816,0.060853 -0.65319,0.1782837 -0.277398,0.18789 -0.494004,0.4529663 -0.716752,0.7828983 -0.445498,0.659866 -0.892144,1.595249 -1.343587,2.664437 -0.902887,2.138375 -1.803969,4.805522 -2.447396,6.599597 -1.29765,3.618256 -6.343799,18.177702 -6.343799,18.177702 l 0.929659,0.366902 c 0,0 3.017659,-6.790799 5.924186,-13.693221 1.453263,-3.45121 2.877972,-6.929279 3.886585,-9.609232 0.504307,-1.339977 0.904392,-2.477764 1.154451,-3.326412 0.12503,-0.424325 0.212956,-0.773793 0.257866,-1.060401 0.02244,-0.143305 0.03534,-0.269209 0.02894,-0.402559 -0.0064,-0.133349 -0.0044,-0.3061739 -0.198955,-0.4940269 l -0.03307,-0.033073 -0.04134,-0.025321 C 45.374973,9.5671668 45.235043,9.528476 45.092935,9.520776 Z m 95.770895,2.301152 -0.0858,0.437699 c -0.13866,0.709373 -1.73457,7.59394 -3.0918,11.289233 -1.35869,3.699245 -3.95761,8.423423 -5.17384,11.082011 l -0.38086,0.831991 0.90589,-0.129191 c 3.01506,-0.427187 7.98254,-1.156141 11.42411,-1.382862 3.43111,-0.226033 9.33586,-0.103352 9.33586,-0.103352 l 0.70487,0.01344 -0.21859,-0.669726 c 0,0 -0.0875,-0.264714 -0.20878,-0.560689 -0.0606,-0.147988 -0.13049,-0.306358 -0.20929,-0.453203 -0.0788,-0.146846 -0.14132,-0.279169 -0.31987,-0.423747 -0.16731,-0.135486 -0.21974,-0.109055 -0.27544,-0.118855 -0.0557,-0.0098 -0.10321,-0.01457 -0.15451,-0.01757 -0.10267,-0.006 -0.22143,-0.0067 -0.36535,-0.0041 -0.28783,0.0051 -0.67225,0.0238 -1.13637,0.05271 -0.92824,0.05782 -2.16701,0.157486 -3.49643,0.273368 -2.65884,0.231764 -5.67501,0.530419 -7.25175,0.701249 -2.69889,0.29241 -4.83004,0.639976 -5.61516,0.763778 0.65761,-1.25782 3.54777,-6.813912 4.77128,-10.082072 0.678,-1.811009 1.43566,-4.339874 2.01384,-6.461105 0.28908,-1.060615 0.53183,-2.018372 0.69711,-2.7342 0.0826,-0.357913 0.14729,-0.654028 0.18759,-0.880566 0.0201,-0.113269 0.0349,-0.206715 0.0429,-0.293005 0.004,-0.04315 0.006,-0.0836 0.006,-0.132809 -5e-4,-0.04921 0.0139,-0.09544 -0.047,-0.236678 -0.10188,-0.236276 -0.26777,-0.340942 -0.41238,-0.419612 -0.1446,-0.07866 -0.2915,-0.129046 -0.43718,-0.170016 -0.29135,-0.08194 -0.57534,-0.121982 -0.76584,-0.136942 z m 39.75003,0.806669 -0.0491,0.527616 c 0,0 -0.30264,3.287164 -0.63562,7.14375 -0.7973,0.16813 -1.60275,0.337758 -2.27635,0.483175 -1.8338,0.395884 -3.11961,0.685496 -3.64474,0.845426 -0.95261,0.290126 -1.74864,0.625134 -2.31613,0.906405 -0.28375,0.140636 -0.50814,0.267164 -0.67593,0.375171 -0.0839,0.054 -0.15239,0.10157 -0.21859,0.15813 -0.0331,0.02828 -0.0655,0.05615 -0.10749,0.109037 -0.042,0.0529 -0.14616,0.12391 -0.11886,0.389123 l 0.062,0.607198 0.58239,-0.181901 c 1.47014,-0.454817 4.65752,-1.230921 8.58139,-2.147672 -0.026,0.306788 -0.0517,0.595312 -0.0775,0.903821 -0.20203,2.413021 -0.39511,4.840535 -0.51934,6.699332 -0.0621,0.929398 -0.10673,1.716301 -0.12713,2.292884 -0.01,0.288291 -0.0159,0.52238 -0.0119,0.704866 0.002,0.09124 0.006,0.168173 0.0139,0.242363 0.008,0.07419 -0.0282,0.111343 0.0935,0.308508 0.42968,0.695952 1.19127,0.793525 1.50224,0.820105 l 0.54467,0.04702 -0.002,-0.546736 c -0.009,-1.458296 0.25763,-6.420231 0.51366,-10.98641 0.0198,-0.353681 0.0331,-0.599085 0.0527,-0.946712 5.54744,-1.283143 12.16494,-2.771383 17.74827,-4.076754 0.002,-5e-4 0.004,-0.0015 0.006,-0.0021 0.006,-0.0014 0.01,-0.0023 0.016,-0.0036 l -0.21498,-0.976685 c -0.004,7e-4 -0.01,0.0033 -0.0139,0.0041 -4.00302,0.814245 -9.85281,1.994269 -14.93759,3.042709 -0.88312,0.182092 -1.6977,0.351994 -2.52078,0.523482 0.0723,-1.285397 0.15284,-2.692339 0.20464,-3.675745 0.0431,-0.817498 0.0764,-1.494647 0.0956,-1.976623 0.01,-0.240988 0.0156,-0.43161 0.0176,-0.572058 0.001,-0.07022 4.5e-4,-0.128564 -0.002,-0.179834 -0.001,-0.02563 -0.002,-0.04925 -0.006,-0.08217 -0.002,-0.01646 -0.003,-0.03389 -0.0103,-0.06459 -0.003,-0.01535 -0.008,-0.03376 -0.0176,-0.06046 -0.009,-0.0267 -0.0579,-0.116133 -0.0584,-0.116788 -0.22691,-0.338216 -0.44863,-0.336947 -0.62321,-0.387057 -0.17458,-0.05011 -0.32608,-0.07235 -0.32608,-0.07235 z m -76.54313,6.136576 c -0.54693,0.03918 -1.14122,0.299645 -2.08566,0.765845 -0.53276,0.262981 -1.64079,0.943932 -3.081982,1.853633 -1.4412,0.9097 -3.185618,2.034413 -4.871538,3.130559 -3.35894,2.183901 -6.460458,4.238194 -6.484358,4.254004 -9e-5,6e-5 -0.02532,0.0155 -0.02532,0.0155 l 0.525549,0.851628 c 0,0 8.181881,-4.713582 13.659109,-7.680151 l -0.46198,0.697632 c 0,0 1.04014,0.804057 2.00969,1.69757 0.48477,0.446756 0.95109,0.919017 1.24437,1.295012 0.14008,0.179597 0.23137,0.333931 0.27337,0.429431 -0.0401,0.03685 -0.10139,0.09488 -0.34158,0.154512 -0.28834,0.07157 -0.71422,0.120314 -1.22112,0.162264 -1.01378,0.0839 -2.358,0.152587 -3.800278,0.501779 -2.839049,0.68736 -11.318689,3.32021 -11.318689,3.32021 l -0.0036,0.0021 0.209806,0.664559 C 88.240399,30.86977 88.00248,30.82028 88.00248,30.82028 l -0.230477,0.972551 0.03152,0.0078 20.667997,5.582088 0.41186,-0.896586 c 0,0 -0.76732,-0.532537 -1.48622,-0.829923 -1.36205,-0.563438 -4.91564,-1.481759 -8.572605,-2.375049 -3.65695,-0.89329 -7.357033,-1.734073 -8.820133,-2.046904 -0.286,-0.06115 -0.63577,-0.131832 -1.09554,-0.226342 1.19418,-0.37663 5.34052,-1.65939 8.52351,-2.302702 3.714618,-0.750756 6.612708,-0.594908 9.453178,-1.16427 l 0.68316,-0.138493 -0.34727,-0.601514 c -1.64438,-2.848773 -5.2007,-4.845712 -5.35471,-4.931482 1.22247,-0.660817 2.34983,-1.260168 3.15536,-1.658813 l 0.39636,-0.195337 -0.14624,-0.417546 c -0.0789,-0.224644 -0.19634,-0.454476 -0.416,-0.623217 -0.21966,-0.168739 -0.51201,-0.22888 -0.78548,-0.20929 z m -14.867309,0.274402 c -0.31052,0.0028 -0.627489,0.01166 -0.948779,0.02687 v -5.17e-4 c -1.331349,0.06304 -3.562211,0.446434 -5.496305,0.81287 -1.922445,0.36423 -3.511731,0.710485 -3.531051,0.714685 -1.1e-4,0 -0.0217,0.0041 -0.0217,0.0041 l 0.191203,0.980302 c 0,0 0.02159,-0.0041 0.0217,-0.0041 0.01985,-0.0034 1.69067,-0.289074 3.640604,-0.579809 1.961482,-0.292457 4.217803,-0.58133 5.177979,-0.581877 1.327368,-7.47e-4 1.792108,0.142819 2.439128,0.239779 -5.694981,3.570254 -17.487771,10.32405 -21.505148,12.615767 0.03732,-0.05583 0.08195,-0.128151 0.118339,-0.181901 1.075098,-1.588114 2.654504,-3.611962 4.05505,-5.373316 1.400546,-1.761354 2.598694,-3.220812 3.021521,-3.853511 0.370344,-0.554166 0.831531,-1.145925 0.947229,-1.820044 0.02893,-0.16853 0.03247,-0.354811 -0.03152,-0.546737 C 77.217681,21.300209 77.075262,21.11765 76.898749,21.005861 76.545723,20.78228 76.131967,20.76619 75.580483,20.82396 l -0.240295,0.02325 -0.130742,0.205156 c -1.276033,2.014847 -5.63259,8.515288 -7.747847,12.181685 -2.105107,3.648805 -5.014593,9.427823 -5.025533,9.449553 0,4e-5 -0.0098,0.01757 -0.0098,0.01757 l 0.882634,0.468705 c 0,0 0.0097,-0.01753 0.0098,-0.01757 0.01076,-0.01941 2.580531,-4.646498 4.689637,-8.061007 C 68.609569,34.780321 87.36225,25.073184 93.92045,20.611049 l 0.554488,-0.376721 -0.519348,-0.423747 c -0.2491,-0.203159 -0.541735,-0.306747 -0.907955,-0.406177 -0.36621,-0.09943 -0.804485,-0.179235 -1.299145,-0.238745 -0.74199,-0.08927 -1.613485,-0.13449 -2.545065,-0.12609 z m 25.230499,0.817521 c -0.33346,-0.0028 -0.56747,0.100656 -1.03456,0.24598 l -0.32608,0.101802 -0.0232,0.341582 c -0.0861,1.249151 -0.58796,3.891555 -0.99219,5.59604 -0.39564,1.66829 -1.37224,4.590839 -1.37924,4.611089 l -0.002,0.0021 c 0,5e-5 -0.004,0.01395 -0.004,0.01395 l 0.94309,0.33383 c 0,0 0.91324,-2.466542 1.81281,-4.990393 0.44979,-1.261925 0.89613,-2.539069 1.22473,-3.533118 0.16431,-0.497024 0.29756,-0.921106 0.39016,-1.245919 0.0463,-0.162407 0.0828,-0.299603 0.10748,-0.415995 0.0123,-0.0582 0.0214,-0.110718 0.0274,-0.167948 0.006,-0.05723 0.0244,-0.102341 -0.0119,-0.246497 -0.0292,-0.115916 -0.0571,-0.252264 -0.18914,-0.406177 -0.13191,-0.153781 -0.37573,-0.238652 -0.5426,-0.240295 z m 47.64774,0.605131 c -0.15172,-0.0082 -0.28299,6.8e-5 -0.38189,0.0083 -0.18327,0.01522 -0.16097,0.03623 -0.20877,0.05478 -0.0478,0.01855 -0.10133,0.04046 -0.16433,0.06821 -0.12589,0.0555 -0.29026,0.13163 -0.49403,0.22841 -0.40755,0.193557 -0.96729,0.468276 -1.62677,0.7953 -1.31896,0.654047 -3.04199,1.523846 -4.75217,2.400371 -1.71017,0.876526 -3.40574,1.758316 -4.67361,2.43706 -0.63394,0.339373 -1.15977,0.62774 -1.53169,0.841809 -0.18597,0.107035 -0.33227,0.194644 -0.44339,0.267684 -0.0556,0.03652 -0.10073,0.06696 -0.15193,0.109554 -0.0256,0.0213 -0.0533,0.04236 -0.0961,0.0956 -0.0214,0.02662 -0.0487,0.05959 -0.078,0.130741 -0.0147,0.03558 -0.035,0.143594 -0.0351,0.144694 -1e-4,0.0011 0.0271,0.221875 0.0274,0.222725 0.11407,0.314994 0.26823,0.297314 0.33383,0.320394 0.0656,0.02308 0.10943,0.03076 0.15813,0.03876 0.0974,0.01602 0.20338,0.02629 0.33797,0.03359 0.26919,0.01467 0.64536,0.01827 1.14256,0.01137 0.9944,-0.01381 2.4667,-0.07614 4.42971,-0.212907 3.68467,-0.256729 9.44513,-0.853754 16.63877,-1.820044 -3.83343,6.36942 -7.46953,10.552737 -10.1818,13.103593 -1.42805,1.34306 -2.60392,2.278145 -3.44527,2.94504 -0.42067,0.333448 -0.75742,0.598126 -1.01131,0.826306 -0.2539,0.228181 -0.47562,0.361817 -0.54312,0.771529 -0.0797,0.483875 -0.18182,0.86774 0.0408,1.304313 0.11134,0.218286 0.3575,0.396795 0.59376,0.449585 0.23626,0.05279 0.46168,0.03117 0.71882,-0.01964 l 0.14469,-0.02945 0.10542,-0.101286 c 7.60808,-7.301041 10.3038,-10.122786 16.26722,-20.023584 l 0.55294,-0.916223 -1.05678,0.164331 c -4.14891,0.647953 -8.96961,1.286468 -13.04882,1.701188 -2.03961,0.207361 -3.89414,0.358591 -5.38261,0.427881 -1.03431,0.04815 -1.57757,-0.0012 -2.17972,-0.03721 0.39855,-0.348964 0.97511,-0.745647 2.01539,-1.264006 1.77621,-0.885057 4.65015,-2.064739 9.21494,-3.837491 l 0.51211,-0.199472 -0.2465,-0.490409 c -0.23584,-0.469317 -0.63401,-0.745938 -0.9958,-0.860929 -0.1809,-0.05749 -0.35316,-0.08223 -0.50488,-0.09043 z m 34.3917,1.02216 c -0.005,0.0028 -0.004,0.0029 -0.0103,0.0057 -5.0392,2.648308 -7.74504,4.243053 -9.44335,5.249809 l -0.0408,0.02532 -0.0372,0.03152 c 0,0 -0.47906,0.424307 -0.91209,0.859379 -0.21652,0.217537 -0.41935,0.430963 -0.56844,0.634587 -0.0746,0.101812 -0.1474,0.174331 -0.1912,0.382922 -0.0219,0.104296 -0.0279,0.304646 0.1111,0.47439 0.13905,0.169748 0.32981,0.200538 0.4377,0.201538 0.1433,0.0014 0.1876,-0.02557 0.2403,-0.04496 0.0527,-0.01939 0.0983,-0.04013 0.14831,-0.0646 0.10009,-0.04893 0.2134,-0.112913 0.34778,-0.191203 0.26875,-0.156574 0.61829,-0.374979 1.03301,-0.640788 0.82943,-0.531617 1.91507,-1.252672 3.07423,-2.021582 2.31478,-1.535475 4.92968,-3.265186 6.27766,-4.017326 0.002,-0.0011 0.008,-0.005 0.01,-0.0062 z m -128.064535,0.28112 c 0,0 -5.149567,1.276312 -10.119279,4.019393 -4.034084,2.226653 -12.574888,7.988952 -16.281177,10.502201 0.441232,-0.524972 0.465335,-0.548418 0.964799,-1.1467 1.68602,-2.019599 3.45714,-4.159336 3.976502,-4.910295 0.467589,-0.676099 1.32674,-1.94112 1.914095,-3.210656 0.293677,-0.634767 0.524615,-1.269739 0.590145,-1.875338 0.06553,-0.605598 -0.06407,-1.254831 -0.568441,-1.652096 l -0.463021,-0.365352 -0.285254,0.519348 c -1.346968,2.463964 -2.256288,4.153008 -3.918107,6.566524 -1.655541,2.404398 -5.816183,7.900294 -5.816183,7.900293 l -0.212906,0.283187 0.916223,1.381311 0.411861,-0.256315 c 0,0 14.135469,-8.755879 19.007625,-11.509375 4.885634,-2.761113 10.221082,-5.310787 10.221082,-5.310787 z m 48.253905,1.636592 -0.14263,0.990121 c 3.33025,0.559048 5.516,1.111041 6.85953,1.519804 1.34352,0.408762 1.81229,0.657841 1.81229,0.657841 l 0.51005,-0.859379 c 0,0 -0.44046,-0.293366 -0.96325,-0.61495 -0.52279,-0.321584 -1.08131,-0.665475 -1.53531,-0.812354 -0.43787,-0.141661 -1.17085,-0.239024 -2.28513,-0.379305 -1.11428,-0.14028 -2.56418,-0.303478 -4.25555,-0.501778 z m 79.38275,0.583944 -0.34572,0.1757 c -0.12956,0.06588 -0.25977,0.143368 -0.37879,0.273368 -0.11902,0.13 -0.21572,0.332073 -0.22272,0.535368 -0.008,0.222584 0.0556,0.259494 0.0822,0.302824 0.0267,0.04333 0.0492,0.06803 0.0703,0.09353 0.0422,0.05099 0.084,0.09725 0.13642,0.150379 0.10484,0.106259 0.24375,0.237019 0.41393,0.396875 0.34036,0.319711 0.80458,0.748232 1.31103,1.240234 1.01289,0.984004 2.20029,2.233295 2.88044,3.298507 l 0.86145,-0.503846 c -0.006,-0.01079 -0.0172,-0.02227 -0.0232,-0.03307 l 0.004,-0.0021 c -0.009,-0.01414 -0.0267,-0.02667 -0.0357,-0.04083 -1.15232,-2.120821 -3.61572,-4.592622 -4.49791,-5.596041 z M 33.559272,24.475419 c -0.292299,0.0064 -0.639168,0.04204 -1.078487,0.09095 -0.878637,0.09778 -2.057959,0.291338 -3.546553,0.601514 -2.977187,0.620352 -7.182442,1.711682 -12.591996,3.464905 l 0.240295,0.968416 c 1.714484,-0.301755 5.282373,-1.044631 8.843905,-1.72651 3.561531,-0.681878 7.146727,-1.300335 8.697143,-1.353405 l 0.189653,-0.0057 0.136425,-0.129191 c 0.131086,-0.123283 0.178789,-0.224498 0.238229,-0.349332 0.05944,-0.124834 0.10937,-0.264028 0.14056,-0.42013 0.03121,-0.156102 0.05051,-0.329328 -0.0098,-0.535368 -0.06029,-0.206039 -0.259646,-0.444735 -0.507462,-0.521415 -0.221562,-0.06855 -0.459593,-0.09115 -0.751893,-0.08475 z m 29.359965,4.170805 c -0.08932,-0.0015 -0.177416,0.0094 -0.262516,0.02739 -0.34039,0.07173 -0.68657,0.254651 -1.154451,0.574125 l -0.109038,0.07441 -0.05891,0.118856 c -2.364103,4.841321 -4.471318,6.912421 -7.097241,10.096025 -2.578844,3.126528 -5.526961,5.74032 -7.041431,7.964888 -1.494095,2.19464 -3.353259,6.401739 -3.382739,6.468339 -2.3e-4,6e-4 -0.02739,0.05116 -0.02739,0.05116 l 0.886767,0.458887 c 0,0 2.350374,-3.959495 3.797184,-5.92367 1.460307,-1.982497 2.626138,-3.08471 5.079794,-6.03529 1.213675,-1.459472 3.571448,-4.184423 5.676139,-6.664193 1.052345,-1.239885 2.042067,-2.419229 2.798796,-3.353284 0.378364,-0.467027 0.698006,-0.872072 0.941028,-1.197343 0.243022,-0.325271 0.398677,-0.53147 0.502294,-0.767911 0.08717,-0.198911 0.169515,-0.427306 0.216525,-0.669727 0.04701,-0.242421 0.08961,-0.507114 -0.07235,-0.812354 -0.08098,-0.15262 -0.240013,-0.300285 -0.42168,-0.363285 -0.09083,-0.0315 -0.181465,-0.04553 -0.270785,-0.04703 z m 121.774483,1.378727 -0.22428,0.971 c 6.41843,2.166587 12.21729,2.206051 16.98811,3.665926 l 0.28887,0.08785 0.21291,-0.216524 c 0,0 0.2362,-0.236035 0.43977,-0.537435 0.10178,-0.1507 0.20308,-0.315172 0.26148,-0.531234 0.0583,-0.216062 0.0436,-0.580661 -0.20671,-0.806669 -0.18278,-0.16497 -0.20508,-0.12142 -0.26768,-0.14056 -0.0626,-0.01914 -0.12832,-0.0349 -0.20722,-0.05271 -0.15771,-0.03562 -0.36256,-0.07579 -0.61702,-0.120923 -0.50892,-0.09026 -1.20939,-0.201283 -2.03915,-0.326078 -1.6595,-0.249589 -3.83693,-0.555049 -6.00377,-0.850077 -4.33368,-0.590057 -8.62531,-1.142566 -8.62531,-1.142566 z m 0.53123,1.279508 -0.7276,0.685747 c 0.004,0.0042 0.0115,0.0113 0.0155,0.0155 2.72423,3.022324 7.69116,8.038015 14.07046,12.408029 l 0.70848,0.484725 0.0724,-0.855762 c 0.0547,-0.657427 0.055,-1.090156 -0.004,-1.431437 -0.059,-0.341281 -0.23576,-0.646253 -0.47697,-0.789099 -6.11923,-3.623729 -10.52121,-7.324897 -13.64258,-10.502202 -0.005,-0.0046 -0.0105,-0.0109 -0.0155,-0.0155 z" /></g></svg>
